<svg width="1200" height="400" viewBox="0 0 1200 400" fill="none" xmlns="http://www.w3.org/2000/svg">
  <defs>
    <linearGradient id="gradient" x1="0%" y1="0%" x2="100%" y2="100%">
      <stop offset="0%" style="stop-color:#2C5837;stop-opacity:1" />
      <stop offset="100%" style="stop-color:#1B4025;stop-opacity:1" />
    </linearGradient>
  </defs>
  <rect width="1200" height="400" fill="url(#gradient)"/>
  <!-- Coffee cup icon -->
  <g transform="translate(500, 100)">
    <path d="M100 150 C100 120, 120 100, 150 100 L200 100 C230 100, 250 120, 250 150 L250 200 C250 230, 230 250, 200 250 L150 250 C120 250, 100 230, 100 200 Z" fill="white" opacity="0.9"/>
    <path d="M250 150 L280 140 L280 180 L250 190 Z" fill="white" opacity="0.9"/>
    <ellipse cx="175" cy="200" rx="50" ry="10" fill="#8B4513" opacity="0.8"/>
    <path d="M120 100 Q120 80, 140 80 L160 80 Q180 80, 180 100" stroke="white" stroke-width="3" fill="none" opacity="0.7"/>
  </g>
  <!-- Text -->
  <text x="600" y="280" font-family="Arial, sans-serif" font-size="48" font-weight="bold" fill="white" text-anchor="middle">星巴克咖啡</text>
  <text x="600" y="320" font-family="Arial, sans-serif" font-size="32" fill="white" text-anchor="middle" opacity="0.9">Starbucks Coffee</text>
</svg>
